<svg width="50" height="50" viewBox="0 0 50 50" fill="none" xmlns="http://www.w3.org/2000/svg">
<g id="dvr">
<mask id="mask0_1021_33927" style="mask-type:alpha" maskUnits="userSpaceOnUse" x="0" y="0" width="50" height="50">
<rect id="Bounding box" width="50" height="50" fill="#E81F76"/>
</mask>
<g mask="url(#mask0_1021_33927)">
<path id="dvr_2" d="M14.5827 29.1667C15.173 29.1667 15.6678 28.967 16.0671 28.5677C16.4664 28.1684 16.666 27.6736 16.666 27.0833C16.666 26.4931 16.4664 25.9983 16.0671 25.599C15.6678 25.1997 15.173 25 14.5827 25C13.9924 25 13.4976 25.1997 13.0983 25.599C12.699 25.9983 12.4993 26.4931 12.4993 27.0833C12.4993 27.6736 12.699 28.1684 13.0983 28.5677C13.4976 28.967 13.9924 29.1667 14.5827 29.1667ZM14.5827 20.8333C15.173 20.8333 15.6678 20.6337 16.0671 20.2344C16.4664 19.8351 16.666 19.3403 16.666 18.75C16.666 18.1597 16.4664 17.6649 16.0671 17.2656C15.6678 16.8663 15.173 16.6667 14.5827 16.6667C13.9924 16.6667 13.4976 16.8663 13.0983 17.2656C12.699 17.6649 12.4993 18.1597 12.4993 18.75C12.4993 19.3403 12.699 19.8351 13.0983 20.2344C13.4976 20.6337 13.9924 20.8333 14.5827 20.8333ZM18.7493 29.1667H37.4994V25H18.7493V29.1667ZM18.7493 20.8333H37.4994V16.6667H18.7493V20.8333ZM16.666 43.75V39.5833H8.33268C7.18685 39.5833 6.20595 39.1753 5.38997 38.3594C4.574 37.5434 4.16602 36.5625 4.16602 35.4167V10.4167C4.16602 9.27083 4.574 8.28993 5.38997 7.47396C6.20595 6.65799 7.18685 6.25 8.33268 6.25H41.666C42.8119 6.25 43.7928 6.65799 44.6087 7.47396C45.4247 8.28993 45.8327 9.27083 45.8327 10.4167V35.4167C45.8327 36.5625 45.4247 37.5434 44.6087 38.3594C43.7928 39.1753 42.8119 39.5833 41.666 39.5833H33.3327V43.75H16.666ZM8.33268 35.4167H41.666V10.4167H8.33268V35.4167Z" fill="#E81F76"/>
</g>
</g>
</svg>
