<svg width="23" height="24" viewBox="0 0 23 24" fill="none" xmlns="http://www.w3.org/2000/svg">
<g id="file-jpg-box">
<path id="Vector" d="M18 3H4C2.9 3 2 3.9 2 5V19C2 20.1 2.9 21 4 21H18C19.1 21 20 20.1 20 19V5C20 3.9 19.1 3 18 3ZM8 13.5C8 14.6 7.1 15 6 15C4.9 15 4 14.6 4 13.5V12H5.5V13.5H6.5V9H8V13.5ZM13 11.5C13 12.3 12.3 13 11.5 13H10.5V15H9V9H11.5C12.3 9 13 9.7 13 10.5V11.5ZM18 10.5H15.5V13.5H16.5V12H18V13.7C18 14.4 17.5 15 16.7 15H15.4C14.6 15 14.1 14.3 14.1 13.7V10.4C14 9.7 14.5 9 15.3 9H16.6C17.4 9 17.9 9.7 17.9 10.3V10.5M10.5 10.5H11.5V11.5H10.5V10.5Z" fill="#D00000"/>
</g>
</svg>
