<svg width="23" height="24" viewBox="0 0 23 24" fill="none" xmlns="http://www.w3.org/2000/svg">
<g id="file-pdf-box">
<path id="Vector" d="M18.1332 4H4.77203C3.72222 4 2.86328 4.8 2.86328 5.77778V18.2222C2.86328 19.2 3.72222 20 4.77203 20H18.1332C19.1831 20 20.042 19.2 20.042 18.2222V5.77778C20.042 4.8 19.1831 4 18.1332 4ZM9.0667 11.5556C9.0667 12.2667 8.39864 12.8889 7.63514 12.8889H6.68077V14.6667H5.24921V9.33333H7.63514C8.39864 9.33333 9.0667 9.95556 9.0667 10.6667V11.5556ZM13.8386 13.3333C13.8386 14.0444 13.1705 14.6667 12.407 14.6667H10.0211V9.33333H12.407C13.1705 9.33333 13.8386 9.95556 13.8386 10.6667V13.3333ZM17.6561 10.6667H16.2245V11.5556H17.6561V12.8889H16.2245V14.6667H14.7929V9.33333H17.6561V10.6667ZM11.4526 10.6667H12.407V13.3333H11.4526V10.6667ZM6.68077 10.6667H7.63514V11.5556H6.68077V10.6667Z" fill="#D00000"/>
</g>
</svg>
