<svg width="18" height="18" viewBox="0 0 18 18" fill="none" xmlns="http://www.w3.org/2000/svg">
<rect width="18" height="18" rx="2" fill="#00AEC3"/>
<path d="M4.0166 11H2.9126L2.91943 10.0771H4.0166C4.24447 10.0771 4.43701 10.0225 4.59424 9.91309C4.75374 9.80371 4.87451 9.64079 4.95654 9.42432C5.04085 9.20557 5.08301 8.93669 5.08301 8.61768V8.40234C5.08301 8.16309 5.05908 7.95345 5.01123 7.77344C4.96566 7.59115 4.8973 7.43962 4.80615 7.31885C4.71501 7.1958 4.60107 7.10352 4.46436 7.04199C4.32992 6.98047 4.17497 6.94971 3.99951 6.94971H2.89209V6.02344H3.99951C4.33675 6.02344 4.64551 6.08154 4.92578 6.19775C5.20833 6.31169 5.45215 6.47575 5.65723 6.68994C5.86458 6.90186 6.02409 7.15365 6.13574 7.44531C6.24967 7.7347 6.30664 8.05599 6.30664 8.40918V8.61768C6.30664 8.96859 6.24967 9.28988 6.13574 9.58154C6.02409 9.87321 5.86572 10.125 5.66064 10.3369C5.45557 10.5488 5.21289 10.7129 4.93262 10.8291C4.65462 10.943 4.34928 11 4.0166 11ZM3.59961 6.02344V11H2.3999V6.02344H3.59961ZM11.1431 8.4126V8.61426C11.1431 8.99479 11.0895 9.33659 10.9824 9.63965C10.8776 9.94043 10.7284 10.1979 10.5347 10.4121C10.341 10.624 10.112 10.7869 9.84766 10.9009C9.58333 11.0125 9.29167 11.0684 8.97266 11.0684C8.65137 11.0684 8.35742 11.0125 8.09082 10.9009C7.8265 10.7869 7.59635 10.624 7.40039 10.4121C7.20671 10.1979 7.05632 9.94043 6.94922 9.63965C6.8444 9.33659 6.79199 8.99479 6.79199 8.61426V8.4126C6.79199 8.03206 6.8444 7.69027 6.94922 7.38721C7.05632 7.08415 7.20557 6.82666 7.39697 6.61475C7.59066 6.40055 7.81966 6.23763 8.08398 6.12598C8.35059 6.01204 8.64453 5.95508 8.96582 5.95508C9.28483 5.95508 9.5765 6.01204 9.84082 6.12598C10.1074 6.23763 10.3376 6.40055 10.5312 6.61475C10.7249 6.82666 10.8753 7.08415 10.9824 7.38721C11.0895 7.69027 11.1431 8.03206 11.1431 8.4126ZM9.92627 8.61426V8.40576C9.92627 8.15967 9.90462 7.9432 9.86133 7.75635C9.82031 7.56722 9.75879 7.40885 9.67676 7.28125C9.59473 7.15365 9.49333 7.05794 9.37256 6.99414C9.25407 6.92806 9.11849 6.89502 8.96582 6.89502C8.80632 6.89502 8.66732 6.92806 8.54883 6.99414C8.43034 7.05794 8.33122 7.15365 8.25146 7.28125C8.17171 7.40885 8.11133 7.56722 8.07031 7.75635C8.03158 7.9432 8.01221 8.15967 8.01221 8.40576V8.61426C8.01221 8.85807 8.03158 9.07454 8.07031 9.26367C8.11133 9.45052 8.17171 9.60889 8.25146 9.73877C8.3335 9.86865 8.43376 9.96663 8.55225 10.0327C8.67301 10.0988 8.81315 10.1318 8.97266 10.1318C9.12533 10.1318 9.2609 10.0988 9.37939 10.0327C9.49788 9.96663 9.59701 9.86865 9.67676 9.73877C9.75879 9.60889 9.82031 9.45052 9.86133 9.26367C9.90462 9.07454 9.92627 8.85807 9.92627 8.61426ZM14.5952 9.31494H15.7915C15.7756 9.6613 15.6821 9.96663 15.5112 10.231C15.3403 10.4953 15.1034 10.7015 14.8003 10.8496C14.4995 10.9954 14.144 11.0684 13.7339 11.0684C13.4012 11.0684 13.1038 11.0125 12.8418 10.9009C12.582 10.7892 12.361 10.6286 12.1787 10.4189C11.9987 10.2093 11.8608 9.95524 11.7651 9.65674C11.6717 9.35824 11.625 9.02214 11.625 8.64844V8.37842C11.625 8.00472 11.674 7.66862 11.772 7.37012C11.8722 7.06934 12.0135 6.81413 12.1958 6.60449C12.3804 6.39258 12.6014 6.23079 12.8589 6.11914C13.1164 6.00749 13.4023 5.95166 13.7168 5.95166C14.1497 5.95166 14.5155 6.02913 14.814 6.18408C15.1125 6.33903 15.3438 6.55208 15.5078 6.82324C15.6719 7.09212 15.7687 7.3986 15.7983 7.74268H14.6021C14.5975 7.55583 14.5656 7.39974 14.5063 7.27441C14.4471 7.14681 14.3537 7.05111 14.2261 6.9873C14.0985 6.9235 13.9287 6.8916 13.7168 6.8916C13.5687 6.8916 13.4399 6.91895 13.3306 6.97363C13.2212 7.02832 13.13 7.11491 13.0571 7.2334C12.9842 7.35189 12.9295 7.5057 12.8931 7.69482C12.8589 7.88167 12.8418 8.10726 12.8418 8.37158V8.64844C12.8418 8.91276 12.8577 9.13835 12.8896 9.3252C12.9215 9.51204 12.9728 9.66471 13.0435 9.7832C13.1141 9.90169 13.2052 9.98942 13.3169 10.0464C13.4308 10.1011 13.5698 10.1284 13.7339 10.1284C13.9162 10.1284 14.07 10.0999 14.1953 10.043C14.3206 9.98372 14.4175 9.89486 14.4858 9.77637C14.5542 9.6556 14.5907 9.50179 14.5952 9.31494Z" fill="white"/>
</svg>
