<svg width="23" height="24" viewBox="0 0 23 24" fill="none" xmlns="http://www.w3.org/2000/svg">
<g id="file-pdf-box">
<path id="Vector" d="M18 3H4C2.9 3 2 3.9 2 5V19C2 20.1 2.9 21 4 21H18C19.1 21 20 20.1 20 19V5C20 3.9 19.1 3 18 3ZM8 11.5C8 12.3 7.3 13 6.5 13H5.5V15H4V9H6.5C7.3 9 8 9.7 8 10.5V11.5ZM13 15H11.5L10.5 12.5V15H9V9H10.5L11.5 11.5V9H13V15ZM18 10.5H15.5V13.5H16.5V12H18V13.7C18 14.4 17.5 15 16.7 15H15.4C14.6 15 14.1 14.3 14.1 13.7V10.4C14 9.7 14.5 9 15.3 9H16.6C17.4 9 17.9 9.7 17.9 10.3V10.5H18ZM5.5 10.5H6.5V11.5H5.5V10.5Z" fill="#D00000"/>
</g>
</svg>
