<svg width="24" height="24" viewBox="0 0 24 24" fill="none" xmlns="http://www.w3.org/2000/svg">
<g id="Mode edit outline" clip-path="url(#clip0_522_60250)">
<g id="Group 57">
<path id="Vector" d="M4 22.525C3.45 22.525 2.979 22.329 2.587 21.937C2.19567 21.5457 2 21.075 2 20.525V6.525C2 5.975 2.19567 5.504 2.587 5.112C2.979 4.72067 3.45 4.525 4 4.525H12.925L10.925 6.525H4V20.525H18V13.575L20 11.575V20.525C20 21.075 19.8043 21.5457 19.413 21.937C19.021 22.329 18.55 22.525 18 22.525H4ZM15.175 5.1L16.6 6.5L10 13.1V14.525H11.4L18.025 7.9L19.45 9.3L12.25 16.525H8V12.275L15.175 5.1ZM19.45 9.3L15.175 5.1L17.675 2.6C18.075 2.2 18.5543 2 19.113 2C19.671 2 20.1417 2.2 20.525 2.6L21.925 4.025C22.3083 4.40833 22.5 4.875 22.5 5.425C22.5 5.975 22.3083 6.44167 21.925 6.825L19.45 9.3Z" fill="#417099"/>
</g>
</g>
<defs>
<clipPath id="clip0_522_60250">
<rect width="24" height="24" fill="white"/>
</clipPath>
</defs>
</svg>
