<svg width="44" height="44" viewBox="0 0 44 44" fill="none" xmlns="http://www.w3.org/2000/svg">
<path id="Vector" d="M22 28.6C20.1667 28.6 18.6083 27.9583 17.325 26.675C16.0417 25.3917 15.4 23.8333 15.4 22C15.4 20.1667 16.0417 18.6083 17.325 17.325C18.6083 16.0417 20.1667 15.4 22 15.4C23.8333 15.4 25.3917 16.0417 26.675 17.325C27.9583 18.6083 28.6 20.1667 28.6 22C28.6 23.8333 27.9583 25.3917 26.675 26.675C25.3917 27.9583 23.8333 28.6 22 28.6ZM22 44L12.65 34.65L15.73 31.57L22 37.73L28.27 31.57L31.35 34.65L22 44ZM9.35 31.35L0 22L9.35 12.65L12.43 15.73L6.27 22L12.43 28.27L9.35 31.35ZM15.73 12.43L12.65 9.35L22 0L31.35 9.35L28.27 12.43L22 6.27L15.73 12.43ZM34.65 31.35L31.57 28.27L37.73 22L31.57 15.73L34.65 12.65L44 22L34.65 31.35Z" fill="#00AEC3"/>
</svg>
