<svg width="45" height="44" viewBox="0 0 45 44" fill="none" xmlns="http://www.w3.org/2000/svg">
<path id="Vector" d="M30.5667 18.7647L39.1833 9.57647L37.4722 7.76471L30.5667 15.0765L27.0833 11.3882L25.3722 13.2647L30.5667 18.7647ZM0.5 44V38.8235H29.8333V44H0.5ZM32.2778 25.8824C28.8963 25.8824 26.0139 24.6206 23.6306 22.0971C21.2472 19.5735 20.0556 16.5216 20.0556 12.9412C20.0556 9.36078 21.2472 6.30882 23.6306 3.78529C26.0139 1.26176 28.8963 0 32.2778 0C35.6593 0 38.5417 1.26176 40.925 3.78529C43.3083 6.30882 44.5 9.36078 44.5 12.9412C44.5 16.5216 43.3083 19.5735 40.925 22.0971C38.5417 24.6206 35.6593 25.8824 32.2778 25.8824ZM0.5 23.2941V18.1176H15.9C16.1852 19.0667 16.5111 19.9725 16.8778 20.8353C17.2444 21.698 17.6926 22.5176 18.2222 23.2941H0.5ZM0.5 33.6471V28.4706H23.4778C24.4148 29.0745 25.413 29.5814 26.4722 29.9912C27.5315 30.401 28.6519 30.6922 29.8333 30.8647V33.6471H0.5Z" fill="#00AEC3"/>
</svg>
