<svg width="20" height="20" viewBox="0 0 20 20" fill="none" xmlns="http://www.w3.org/2000/svg">
<path d="M10 15C11.3833 15 12.5625 14.5125 13.5375 13.5375C14.5125 12.5625 15 11.3833 15 10H13.5C13.5 10.9667 13.1583 11.7917 12.475 12.475C11.7917 13.1583 10.9667 13.5 10 13.5C9.03333 13.5 8.20833 13.1583 7.525 12.475C6.84167 11.7917 6.5 10.9667 6.5 10C6.5 9.03333 6.84167 8.20833 7.525 7.525C8.20833 6.84167 9.03333 6.5 10 6.5H10.075L8.85 7.75L9.9 8.825L12.9 5.825L9.9 2.825L8.825 3.9L9.925 5C8.55833 5.03333 7.39583 5.53333 6.4375 6.5C5.47917 7.46667 5 8.63333 5 10C5 11.3833 5.4875 12.5625 6.4625 13.5375C7.4375 14.5125 8.61667 15 10 15ZM10 20C8.61667 20 7.31667 19.7375 6.1 19.2125C4.88333 18.6875 3.825 17.975 2.925 17.075C2.025 16.175 1.3125 15.1167 0.7875 13.9C0.2625 12.6833 0 11.3833 0 10C0 8.61667 0.2625 7.31667 0.7875 6.1C1.3125 4.88333 2.025 3.825 2.925 2.925C3.825 2.025 4.88333 1.3125 6.1 0.7875C7.31667 0.2625 8.61667 0 10 0C11.3833 0 12.6833 0.2625 13.9 0.7875C15.1167 1.3125 16.175 2.025 17.075 2.925C17.975 3.825 18.6875 4.88333 19.2125 6.1C19.7375 7.31667 20 8.61667 20 10C20 11.3833 19.7375 12.6833 19.2125 13.9C18.6875 15.1167 17.975 16.175 17.075 17.075C16.175 17.975 15.1167 18.6875 13.9 19.2125C12.6833 19.7375 11.3833 20 10 20ZM10 18C12.2333 18 14.125 17.225 15.675 15.675C17.225 14.125 18 12.2333 18 10C18 7.76667 17.225 5.875 15.675 4.325C14.125 2.775 12.2333 2 10 2C7.76667 2 5.875 2.775 4.325 4.325C2.775 5.875 2 7.76667 2 10C2 12.2333 2.775 14.125 4.325 15.675C5.875 17.225 7.76667 18 10 18Z" fill="#E81F76"/>
</svg>
