<svg width="18" height="18" viewBox="0 0 18 18" fill="none" xmlns="http://www.w3.org/2000/svg">
<path id="Vector" d="M16.7154 0.0106568C16.4162 -0.0245954 16.091 0.027314 15.7642 0.170822C15.3591 0.347833 9.01155 3.31416 3.09447 6.08133L1.13933 6.99544C0.382252 7.33646 0 7.89108 0 8.63812C0 9.16115 0.199256 9.87058 1.14988 10.2886L4.45006 11.7574C4.73543 12.7085 5.39823 14.9167 5.56477 15.5038C5.6638 15.8518 5.91391 16.7285 6.54586 16.9335C6.67549 16.9825 6.81076 17.0078 6.94849 17.0078C7.34729 17.0078 7.63443 16.8016 7.77486 16.6816L9.87242 14.7107L12.4201 17.3281C12.5182 17.4391 13.0376 18 13.7352 18C14.6057 18 15.2661 17.195 15.4038 16.4159C15.4785 15.9889 17.9356 2.28613 17.9356 2.28813C18.1562 1.18907 17.7596 0.618927 17.5049 0.375913C17.2866 0.1684 17.0146 0.0459089 16.7154 0.0106568ZM16.1194 2.17094C15.78 4.06105 13.9299 14.378 13.6491 15.8651L9.92516 12.0387L7.3986 14.4158L8.09837 11.3746C8.09837 11.3746 12.9258 5.94615 13.2166 5.63013C13.4506 5.37711 13.4996 5.28842 13.4996 5.20042C13.4996 5.08341 13.4454 4.99923 13.3203 4.99923C13.2078 4.99923 13.0549 5.11902 12.9739 5.17502C11.9447 5.88788 7.56193 8.66169 5.40477 10.0249L2.27514 8.63617L3.79424 7.92714C7.66424 6.11703 14.5566 2.89298 16.1194 2.17094Z" fill="#00AEC3"/>
</svg>
