<svg width="22" height="20" viewBox="0 0 22 20" fill="none" xmlns="http://www.w3.org/2000/svg">
<path d="M2 16C1.45 16 0.979167 15.8042 0.5875 15.4125C0.195833 15.0208 0 14.55 0 14V2C0 1.45 0.195833 0.979167 0.5875 0.5875C0.979167 0.195833 1.45 0 2 0H18C18.55 0 19.0208 0.195833 19.4125 0.5875C19.8042 0.979167 20 1.45 20 2V8C20 8.28333 19.9042 8.52083 19.7125 8.7125C19.5208 8.90417 19.2833 9 19 9C18.7167 9 18.4792 8.90417 18.2875 8.7125C18.0958 8.52083 18 8.28333 18 8V4H2V14H9C9.28333 14 9.52083 14.0958 9.7125 14.2875C9.90417 14.4792 10 14.7167 10 15C10 15.2833 9.90417 15.5208 9.7125 15.7125C9.52083 15.9042 9.28333 16 9 16H2ZM17 20C16.05 20 15.1833 19.7625 14.4 19.2875C13.6167 18.8125 13.0083 18.175 12.575 17.375C12.4583 17.175 12.4375 16.9625 12.5125 16.7375C12.5875 16.5125 12.7333 16.3583 12.95 16.275C13.1333 16.1917 13.3167 16.1917 13.5 16.275C13.6833 16.3583 13.825 16.4917 13.925 16.675C14.225 17.225 14.65 17.6667 15.2 18C15.75 18.3333 16.35 18.5 17 18.5C17.9667 18.5 18.7917 18.1583 19.475 17.475C20.1583 16.7917 20.5 15.9667 20.5 15C20.5 14.0333 20.1583 13.2083 19.475 12.525C18.7917 11.8417 17.9667 11.5 17 11.5C16.5333 11.5 16.0917 11.5833 15.675 11.75C15.2583 11.9167 14.8833 12.1667 14.55 12.5H15.25C15.4667 12.5 15.6458 12.5708 15.7875 12.7125C15.9292 12.8542 16 13.0333 16 13.25C16 13.4667 15.9292 13.6458 15.7875 13.7875C15.6458 13.9292 15.4667 14 15.25 14H13C12.7167 14 12.4792 13.9042 12.2875 13.7125C12.0958 13.5208 12 13.2833 12 13V10.75C12 10.5333 12.0708 10.3542 12.2125 10.2125C12.3542 10.0708 12.5333 10 12.75 10C12.9667 10 13.1458 10.0708 13.2875 10.2125C13.4292 10.3542 13.5 10.5333 13.5 10.75V11.425C13.9833 10.975 14.525 10.625 15.125 10.375C15.725 10.125 16.35 10 17 10C18.3833 10 19.5625 10.4875 20.5375 11.4625C21.5125 12.4375 22 13.6167 22 15C22 16.3833 21.5125 17.5625 20.5375 18.5375C19.5625 19.5125 18.3833 20 17 20Z" fill="#E81F76"/>
</svg>
