<svg width="49" height="48" viewBox="0 0 49 48" fill="none" xmlns="http://www.w3.org/2000/svg">
<g id="contact_phone">
<mask id="mask0_1159_31488" style="mask-type:alpha" maskUnits="userSpaceOnUse" x="0" y="0" width="49" height="48">
<rect id="Bounding box" x="0.666748" width="48" height="48" fill="#D9D9D9"/>
</mask>
<g mask="url(#mask0_1159_31488)">
<path id="contact_phone_2" d="M4.66675 42C3.56675 42 2.62508 41.6083 1.84175 40.825C1.05841 40.0417 0.666748 39.1 0.666748 38V10C0.666748 8.9 1.05841 7.95833 1.84175 7.175C2.62508 6.39167 3.56675 6 4.66675 6H44.6667C45.7667 6 46.7084 6.39167 47.4917 7.175C48.2751 7.95833 48.6667 8.9 48.6667 10V38C48.6667 39.1 48.2751 40.0417 47.4917 40.825C46.7084 41.6083 45.7667 42 44.6667 42H4.66675ZM32.4667 38H44.6667V10H4.66675V38H4.86675C6.26675 35.5 8.20008 33.5417 10.6667 32.125C13.1334 30.7083 15.8001 30 18.6667 30C21.5334 30 24.2001 30.7083 26.6667 32.125C29.1334 33.5417 31.0667 35.5 32.4667 38ZM18.6667 28C20.3334 28 21.7501 27.4167 22.9167 26.25C24.0834 25.0833 24.6667 23.6667 24.6667 22C24.6667 20.3333 24.0834 18.9167 22.9167 17.75C21.7501 16.5833 20.3334 16 18.6667 16C17.0001 16 15.5834 16.5833 14.4167 17.75C13.2501 18.9167 12.6667 20.3333 12.6667 22C12.6667 23.6667 13.2501 25.0833 14.4167 26.25C15.5834 27.4167 17.0001 28 18.6667 28ZM38.6667 36L42.6667 32L39.6667 28H36.3667C36.1667 27.4 36.0001 26.7583 35.8667 26.075C35.7334 25.3917 35.6667 24.7 35.6667 24C35.6667 23.3 35.7334 22.625 35.8667 21.975C36.0001 21.325 36.1667 20.6667 36.3667 20H39.6667L42.6667 16L38.6667 12C36.8667 13.4 35.4167 15.175 34.3167 17.325C33.2168 19.475 32.6667 21.7 32.6667 24C32.6667 26.3 33.2168 28.525 34.3167 30.675C35.4167 32.825 36.8667 34.6 38.6667 36ZM9.76675 38H27.5667C26.4334 36.7333 25.0917 35.75 23.5417 35.05C21.9917 34.35 20.3667 34 18.6667 34C16.9667 34 15.3501 34.35 13.8167 35.05C12.2834 35.75 10.9334 36.7333 9.76675 38ZM18.6667 24C18.1001 24 17.6251 23.8083 17.2417 23.425C16.8584 23.0417 16.6667 22.5667 16.6667 22C16.6667 21.4333 16.8584 20.9583 17.2417 20.575C17.6251 20.1917 18.1001 20 18.6667 20C19.2334 20 19.7084 20.1917 20.0917 20.575C20.4751 20.9583 20.6667 21.4333 20.6667 22C20.6667 22.5667 20.4751 23.0417 20.0917 23.425C19.7084 23.8083 19.2334 24 18.6667 24Z" fill="#00AEC3"/>
</g>
</g>
</svg>
