<svg width="48" height="48" viewBox="0 0 48 48" fill="none" xmlns="http://www.w3.org/2000/svg">
<g id="account_circle">
<mask id="mask0_1159_31478" style="mask-type:alpha" maskUnits="userSpaceOnUse" x="0" y="0" width="48" height="48">
<rect id="Bounding box" width="48" height="48" fill="#D9D9D9"/>
</mask>
<g mask="url(#mask0_1159_31478)">
<path id="account_circle_2" d="M11.7 34.2C13.4 32.9 15.3 31.875 17.4 31.125C19.5 30.375 21.7 30 24 30C26.3 30 28.5 30.375 30.6 31.125C32.7 31.875 34.6 32.9 36.3 34.2C37.4667 32.8333 38.375 31.2833 39.025 29.55C39.675 27.8167 40 25.9667 40 24C40 19.5667 38.4417 15.7917 35.325 12.675C32.2083 9.55833 28.4333 8 24 8C19.5667 8 15.7917 9.55833 12.675 12.675C9.55833 15.7917 8 19.5667 8 24C8 25.9667 8.325 27.8167 8.975 29.55C9.625 31.2833 10.5333 32.8333 11.7 34.2ZM24 26C22.0333 26 20.375 25.325 19.025 23.975C17.675 22.625 17 20.9667 17 19C17 17.0333 17.675 15.375 19.025 14.025C20.375 12.675 22.0333 12 24 12C25.9667 12 27.625 12.675 28.975 14.025C30.325 15.375 31 17.0333 31 19C31 20.9667 30.325 22.625 28.975 23.975C27.625 25.325 25.9667 26 24 26ZM24 44C21.2333 44 18.6333 43.475 16.2 42.425C13.7667 41.375 11.65 39.95 9.85 38.15C8.05 36.35 6.625 34.2333 5.575 31.8C4.525 29.3667 4 26.7667 4 24C4 21.2333 4.525 18.6333 5.575 16.2C6.625 13.7667 8.05 11.65 9.85 9.85C11.65 8.05 13.7667 6.625 16.2 5.575C18.6333 4.525 21.2333 4 24 4C26.7667 4 29.3667 4.525 31.8 5.575C34.2333 6.625 36.35 8.05 38.15 9.85C39.95 11.65 41.375 13.7667 42.425 16.2C43.475 18.6333 44 21.2333 44 24C44 26.7667 43.475 29.3667 42.425 31.8C41.375 34.2333 39.95 36.35 38.15 38.15C36.35 39.95 34.2333 41.375 31.8 42.425C29.3667 43.475 26.7667 44 24 44ZM24 40C25.7667 40 27.4333 39.7417 29 39.225C30.5667 38.7083 32 37.9667 33.3 37C32 36.0333 30.5667 35.2917 29 34.775C27.4333 34.2583 25.7667 34 24 34C22.2333 34 20.5667 34.2583 19 34.775C17.4333 35.2917 16 36.0333 14.7 37C16 37.9667 17.4333 38.7083 19 39.225C20.5667 39.7417 22.2333 40 24 40ZM24 22C24.8667 22 25.5833 21.7167 26.15 21.15C26.7167 20.5833 27 19.8667 27 19C27 18.1333 26.7167 17.4167 26.15 16.85C25.5833 16.2833 24.8667 16 24 16C23.1333 16 22.4167 16.2833 21.85 16.85C21.2833 17.4167 21 18.1333 21 19C21 19.8667 21.2833 20.5833 21.85 21.15C22.4167 21.7167 23.1333 22 24 22Z" fill="#00AEC3"/>
</g>
</g>
</svg>
