<svg width="40" height="30" viewBox="0 0 40 30" fill="none" xmlns="http://www.w3.org/2000/svg">
<path id="Vector" d="M24 4V0H40V4H24ZM24 12V8H40V12H24ZM24 20V16H40V20H24ZM12 18C10.3333 18 8.91667 17.4167 7.75 16.25C6.58333 15.0833 6 13.6667 6 12C6 10.3333 6.58333 8.91667 7.75 7.75C8.91667 6.58333 10.3333 6 12 6C13.6667 6 15.0833 6.58333 16.25 7.75C17.4167 8.91667 18 10.3333 18 12C18 13.6667 17.4167 15.0833 16.25 16.25C15.0833 17.4167 13.6667 18 12 18ZM0 30V26.2C0 25.5 0.166667 24.8333 0.5 24.2C0.833333 23.5667 1.3 23.0667 1.9 22.7C3.4 21.8 4.99167 21.125 6.675 20.675C8.35833 20.225 10.1333 20 12 20C13.8667 20 15.6417 20.225 17.325 20.675C19.0083 21.125 20.6 21.8 22.1 22.7C22.7 23.0667 23.1667 23.5667 23.5 24.2C23.8333 24.8333 24 25.5 24 26.2V30H0ZM4.3 26H19.7C18.5333 25.3333 17.3 24.8333 16 24.5C14.7 24.1667 13.3667 24 12 24C10.6333 24 9.3 24.1667 8 24.5C6.7 24.8333 5.46667 25.3333 4.3 26ZM12 14C12.5667 14 13.0417 13.8083 13.425 13.425C13.8083 13.0417 14 12.5667 14 12C14 11.4333 13.8083 10.9583 13.425 10.575C13.0417 10.1917 12.5667 10 12 10C11.4333 10 10.9583 10.1917 10.575 10.575C10.1917 10.9583 10 11.4333 10 12C10 12.5667 10.1917 13.0417 10.575 13.425C10.9583 13.8083 11.4333 14 12 14Z" fill="#00AEC3"/>
</svg>
